<svg width="35" height="35" viewBox="0 0 35 35" fill="none" xmlns="http://www.w3.org/2000/svg">
<path d="M13.125 7.29095C12.3202 7.29095 11.666 6.63887 11.666 5.83191V4.375C11.666 1.96213 13.6281 0 16.041 0H31.7188C32.5236 0 33.1778 0.652084 33.1778 1.45905C33.1778 2.26601 32.5236 2.91595 31.7188 2.91595H16.041C15.2361 2.91595 14.5819 3.57018 14.5819 4.375V5.83405C14.584 6.63887 13.9298 7.29095 13.125 7.29095Z" fill="#8CE1EB"/>
<path d="M21.1466 30.625H16.0431C13.6302 30.625 11.6681 28.6629 11.6681 26.25V23.334C11.666 22.5271 12.3202 21.875 13.125 21.875C13.9298 21.875 14.5841 22.5271 14.5841 23.334V26.25C14.5841 27.0548 15.2383 27.709 16.0431 27.709H21.1466C21.9514 27.709 22.6056 28.3611 22.6056 29.1681C22.6035 29.9729 21.9514 30.625 21.1466 30.625Z" fill="#8CE1EB"/>
<path d="M9.7802 21.4483C9.36256 21.8665 8.73665 21.9909 8.18977 21.7655C7.64557 21.5401 7.29095 21.0088 7.29095 20.4181V16.0431H1.45905C0.652084 16.041 0 15.3889 0 14.584C0 13.7792 0.652084 13.125 1.45905 13.125H7.29309V8.75C7.29309 8.15933 7.64771 7.62794 8.19244 7.40257C8.73665 7.1772 9.3647 7.30163 9.78233 7.7198L15.6164 13.5538C16.1852 14.1226 16.1852 15.0455 15.6164 15.6164L9.7802 21.4483Z" fill="#26C6DA"/>
<path d="M31.1543 0.142048L22.3914 3.06227C21.2101 3.4735 20.416 4.58487 20.416 5.8319V32.0819C20.416 33.6894 21.7239 34.9979 23.3319 34.9979C23.647 34.9979 23.9423 34.9541 24.2617 34.8558L33.0267 31.9329C34.2059 31.5238 35 30.4108 35 29.1659V2.91594C35 0.995472 33.1121 -0.457165 31.1543 0.142048Z" fill="#26C6DA"/>
</svg>
