<svg width="41" height="31" viewBox="0 0 41 31" fill="none" xmlns="http://www.w3.org/2000/svg">
<path d="M41 5.21094V4.56399C41 2.12807 39.0182 0.146362 36.5824 0.146362H4.41762C1.98171 0.146362 0 2.12807 0 4.56399V5.21094V5.21567V26.4361C0 28.8719 1.98171 30.8535 4.41762 30.8535H36.5826C39.0184 30.8535 41 28.8719 41 26.4361V5.21567C41 5.21415 41 5.21255 41 5.21094ZM4.41762 2.54873H36.5824C37.6935 2.54873 38.5976 3.45273 38.5976 4.56399V4.56455L22.5101 15.2895C21.4393 16.0034 19.5608 16.0033 18.4902 15.2896L2.40236 4.56447V4.56391C2.40236 3.45273 3.30637 2.54873 4.41762 2.54873ZM36.5826 28.4512H4.41762C3.30637 28.4512 2.40236 27.5472 2.40236 26.4361V7.45171L17.1576 17.2884C18.0948 17.9133 19.2972 18.2256 20.5001 18.2256C21.7026 18.2256 22.9056 17.9132 23.8427 17.2884L38.5977 7.45171V26.4361C38.5976 27.5472 37.6937 28.4512 36.5826 28.4512Z" fill="white"/>
</svg>
